<svg width="101" height="100" viewBox="0 0 101 100" fill="none" xmlns="http://www.w3.org/2000/svg">
<path d="M40.6375 85.6904L11.0832 55.6711C7.41407 51.9441 7.41407 45.9625 11.0832 42.2355L40.6375 12.216C46.6477 6.11112 57.0363 10.367 57.0363 18.9338V78.9726C57.0365 87.5394 46.6479 91.7953 40.6375 85.6904Z" fill="#9747FF"/>
<path d="M25.1957 70.1257H7.64337C4.54962 70.1257 2.01837 67.5944 2.01837 64.5007V33.4058C2.01837 30.312 4.54962 27.7808 7.64337 27.7808H25.1959V70.1257H25.1957Z" fill="#597B91"/>
<path d="M71.7533 72.1409C70.9064 72.1409 70.0777 71.721 69.5902 70.953C68.8328 69.7596 69.1859 68.1782 70.3793 67.4204C75.4346 64.2114 79.0432 58.7315 80.0322 52.7622C81.3975 44.5219 77.5521 35.9139 70.4635 31.3421C69.2756 30.5758 68.9338 28.9921 69.7 27.8042C70.4658 26.6161 72.0496 26.2739 73.2381 27.0405C82.0162 32.702 86.776 43.3751 85.082 53.5987C83.8586 60.9821 79.3879 67.7647 73.1229 71.7419C72.7136 72.0025 72.2385 72.141 71.7533 72.1409ZM81.5727 79.1973C89.9271 73.894 95.8891 64.8483 97.5207 55.0001C99.7793 41.368 93.4312 27.1358 81.7246 19.5856C80.5361 18.819 78.9523 19.1612 78.1865 20.3493C77.4203 21.5372 77.7621 23.1212 78.95 23.8872C88.9672 30.3477 94.4006 42.5149 92.4709 54.1635C91.0734 62.5977 85.9736 70.3409 78.8291 74.876C77.6359 75.6335 77.2826 77.2151 78.04 78.4087C78.22 78.6926 78.4542 78.9383 78.7292 79.1317C79.0042 79.325 79.3147 79.4623 79.6428 79.5355C79.9709 79.6088 80.3103 79.6166 80.6414 79.5586C80.9725 79.5005 81.289 79.3778 81.5727 79.1973ZM65.998 61.6481C69.4854 59.4339 71.8756 55.8091 72.5559 51.7028C73.4852 46.0932 70.876 40.2387 66.0631 37.1348C64.8754 36.3688 63.2912 36.7106 62.5252 37.8985C61.759 39.0864 62.1008 40.6704 63.2889 41.4366C66.4117 43.4507 68.1066 47.2401 67.5061 50.8661C67.0699 53.4981 65.4805 55.9132 63.2545 57.3266C62.0611 58.0842 61.708 59.6661 62.4654 60.8592C62.6965 61.2237 63.016 61.5237 63.3942 61.7314C63.7724 61.9391 64.197 62.0477 64.6285 62.0471C65.1137 62.0471 65.5888 61.9087 65.998 61.6481Z" fill="#9747FF"/>
</svg>
