<svg width="101" height="100" viewBox="0 0 101 100" fill="none" xmlns="http://www.w3.org/2000/svg">
<path d="M49.1292 47.9166C47.8792 46.9041 46.7542 45.7291 45.8 44.4291C44.7335 45.7334 43.5135 46.9043 42.1667 47.9166H49.1292ZM61.5125 52.0749C63.4125 53.7457 64.9292 55.8457 65.9083 58.2207L73.775 50.3582C75.3374 48.7953 77.4567 47.917 79.6667 47.9166H82.1083C84.3185 47.9166 86.4381 48.7945 88.0009 50.3574C89.5637 51.9202 90.4417 54.0398 90.4417 56.2499V81.2499C90.4417 83.46 89.5637 85.5797 88.0009 87.1425C86.4381 88.7053 84.3185 89.5832 82.1083 89.5832H79.6667C77.4567 89.5828 75.3374 88.7045 73.775 87.1416L65.9083 79.2791C64.6481 82.3287 62.5112 84.9358 59.7683 86.7701C57.0254 88.6044 53.7998 89.5835 50.5 89.5832H25.5C21.0797 89.5832 16.8405 87.8273 13.7149 84.7017C10.5893 81.5761 8.83333 77.3368 8.83333 72.9166V64.5832C8.83278 61.2932 9.80575 58.0765 11.6297 55.3383C13.4537 52.6002 16.0471 50.4629 19.0833 49.1957C16.3612 47.5879 14.0407 45.3817 12.2976 42.7442C10.5545 40.1066 9.43453 37.1069 9.02257 33.9724C8.6106 30.8379 8.91742 27.6507 9.91979 24.6523C10.9222 21.6539 12.5938 18.923 14.808 16.6664C17.0223 14.4098 19.7211 12.6868 22.6999 11.6278C25.6788 10.5688 28.8596 10.2017 32.0014 10.5542C35.1431 10.9068 38.1635 11.9697 40.8336 13.6626C43.5036 15.3554 45.7534 17.6337 47.4125 20.3249C49.5445 18.1122 52.1876 16.4573 55.1094 15.5059C58.0311 14.5546 61.1419 14.3358 64.168 14.869C67.1941 15.4021 70.0428 16.6708 72.4635 18.5634C74.8842 20.456 76.8027 22.9145 78.0501 25.7226C79.2976 28.5307 79.8357 31.6024 79.6173 34.6673C79.3989 37.7323 78.4306 40.6966 76.7976 43.2995C75.1645 45.9023 72.9168 48.0639 70.2522 49.5942C67.5876 51.1244 64.5878 51.9763 61.5167 52.0749H61.5125ZM29.6667 77.0832C30.7717 77.0832 31.8315 76.6442 32.6129 75.8629C33.3943 75.0815 33.8333 74.0216 33.8333 72.9166C33.8333 71.8115 33.3943 70.7517 32.6129 69.9703C31.8315 69.1889 30.7717 68.7499 29.6667 68.7499C28.5616 68.7499 27.5018 69.1889 26.7204 69.9703C25.939 70.7517 25.5 71.8115 25.5 72.9166C25.5 74.0216 25.939 75.0815 26.7204 75.8629C27.5018 76.6442 28.5616 77.0832 29.6667 77.0832ZM29.6667 43.7499C32.9819 43.7499 36.1613 42.4329 38.5055 40.0887C40.8497 37.7445 42.1667 34.5651 42.1667 31.2499C42.1667 27.9347 40.8497 24.7553 38.5055 22.4111C36.1613 20.0669 32.9819 18.7499 29.6667 18.7499C26.3515 18.7499 23.172 20.0669 20.8278 22.4111C18.4836 24.7553 17.1667 27.9347 17.1667 31.2499C17.1667 34.5651 18.4836 37.7445 20.8278 40.0887C23.172 42.4329 26.3515 43.7499 29.6667 43.7499ZM60.9167 43.7499C63.6793 43.7499 66.3288 42.6524 68.2824 40.6989C70.2359 38.7454 71.3333 36.0959 71.3333 33.3332C71.3333 30.5706 70.2359 27.9211 68.2824 25.9675C66.3288 24.014 63.6793 22.9166 60.9167 22.9166C58.154 22.9166 55.5045 24.014 53.551 25.9675C51.5975 27.9211 50.5 30.5706 50.5 33.3332C50.5 36.0959 51.5975 38.7454 53.551 40.6989C55.5045 42.6524 58.154 43.7499 60.9167 43.7499Z" fill="#9747FF"/>
</svg>
