<svg width="101" height="100" viewBox="0 0 101 100" fill="none" xmlns="http://www.w3.org/2000/svg">
<path d="M68.6667 58.3333C69 55.5832 69.25 52.8333 69.25 49.9999C69.25 47.1666 69 44.4166 68.6667 41.6666H82.75C83.4167 44.3333 83.8333 47.1249 83.8333 49.9999C83.8333 52.8749 83.4167 55.6666 82.75 58.3333M61.2917 81.4999C63.7917 76.8749 65.7083 71.8749 67.0417 66.6666H79.3333C75.2965 73.6177 68.8921 78.8832 61.2917 81.4999ZM60.25 58.3333H40.75C40.3333 55.5832 40.0833 52.8333 40.0833 49.9999C40.0833 47.1666 40.3333 44.3749 40.75 41.6666H60.25C60.625 44.3749 60.9167 47.1666 60.9167 49.9999C60.9167 52.8333 60.625 55.5832 60.25 58.3333ZM50.5 83.1666C47.0417 78.1666 44.25 72.6249 42.5417 66.6666H58.4583C56.75 72.6249 53.9583 78.1666 50.5 83.1666ZM33.8333 33.3333H21.6667C25.6619 26.3633 32.0616 21.0894 39.6667 18.4999C37.1667 23.1249 35.2917 28.1249 33.8333 33.3333ZM21.6667 66.6666H33.8333C35.2917 71.8749 37.1667 76.8749 39.6667 81.4999C32.0776 78.8819 25.6869 73.6154 21.6667 66.6666ZM18.25 58.3333C17.5833 55.6666 17.1667 52.8749 17.1667 49.9999C17.1667 47.1249 17.5833 44.3333 18.25 41.6666H32.3333C32 44.4166 31.75 47.1666 31.75 49.9999C31.75 52.8333 32 55.5832 32.3333 58.3333M50.5 16.7916C53.9583 21.7916 56.75 27.3749 58.4583 33.3333H42.5417C44.25 27.3749 47.0417 21.7916 50.5 16.7916ZM79.3333 33.3333H67.0417C65.7376 28.1727 63.8065 23.1912 61.2917 18.4999C68.9583 21.1249 75.3333 26.4166 79.3333 33.3333ZM50.5 8.33325C27.4583 8.33325 8.83333 27.0833 8.83333 49.9999C8.83333 61.0506 13.2232 71.6487 21.0372 79.4627C24.9063 83.3318 29.4996 86.401 34.5548 88.4949C39.6101 90.5888 45.0282 91.6666 50.5 91.6666C61.5507 91.6666 72.1488 87.2767 79.9628 79.4627C87.7768 71.6487 92.1667 61.0506 92.1667 49.9999C92.1667 44.5282 91.0889 39.11 88.995 34.0548C86.901 28.9995 83.8319 24.4062 79.9628 20.5371C76.0937 16.668 71.5004 13.5989 66.4451 11.5049C61.3899 9.41099 55.9717 8.33325 50.5 8.33325Z" fill="#9747FF"/>
</svg>
