<svg width="437" height="351" viewBox="0 0 437 351" fill="none" xmlns="http://www.w3.org/2000/svg">
<path d="M235 38.1688C241.063 38.1688 245.979 32.8588 245.979 26.3086C245.979 19.7584 241.063 14.4484 235 14.4484C228.936 14.4484 224.021 19.7584 224.021 26.3086C224.021 32.8588 228.936 38.1688 235 38.1688Z" fill="#00ED42"/>
<path d="M233.912 30.833C233.665 30.8334 233.424 30.7471 233.227 30.587L233.215 30.5771L230.634 28.4449C230.132 28.0287 230.037 27.2512 230.422 26.7082C230.807 26.1653 231.527 26.0626 232.03 26.4788L233.701 27.8633L237.65 22.2975C238.035 21.7548 238.755 21.6522 239.257 22.0682L239.257 22.0682L239.258 22.0685L239.233 22.1053L239.258 22.0685C239.76 22.4851 239.855 23.2619 239.47 23.8048L234.825 30.3484C234.607 30.654 234.27 30.8326 233.913 30.8315L233.912 30.833V30.833Z" fill="white"/>
<path d="M235 118.348C241.063 118.348 245.979 113.038 245.979 106.487C245.979 99.9372 241.063 94.6272 235 94.6272C228.936 94.6272 224.021 99.9372 224.021 106.487C224.021 113.038 228.936 118.348 235 118.348Z" fill="#00ED42"/>
<path d="M233.912 111.012C233.665 111.012 233.424 110.926 233.227 110.766L233.215 110.756L230.634 108.623C230.132 108.207 230.037 107.43 230.422 106.887C230.807 106.344 231.527 106.241 232.03 106.657L233.701 108.042L237.65 102.476C238.035 101.933 238.755 101.831 239.257 102.247L239.257 102.247L239.258 102.247L239.233 102.284L239.258 102.247C239.76 102.664 239.855 103.44 239.47 103.983L234.825 110.527C234.607 110.833 234.27 111.011 233.913 111.01L233.912 111.012V111.012Z" fill="white"/>
<path d="M252.572 207.869C252.438 204.155 255.116 201.025 258.555 200.88C258.921 200.864 259.288 200.884 259.652 200.938L269.707 179.627L275.389 190.436L264.969 209.016C264.27 212.677 260.956 215.032 257.567 214.276C254.732 213.644 252.667 210.995 252.572 207.869L252.572 207.869V207.869Z" fill="#FFB7B7"/>
<path d="M299.451 342.065L291.56 342.065L287.806 309.185L299.452 309.185L299.451 342.065Z" fill="#FFB7B7"/>
<path d="M301.464 350.329L276.019 350.327V349.98C276.019 344.071 280.453 339.282 285.923 339.281H285.923L301.464 339.282L301.464 350.329V350.329Z" fill="#2F2E41"/>
<path d="M342.229 342.065L334.338 342.065L330.584 309.185L342.23 309.185L342.229 342.065Z" fill="#FFB7B7"/>
<path d="M344.241 350.329L318.797 350.327V349.98C318.797 344.071 323.231 339.282 328.701 339.281H328.701L344.242 339.282L344.241 350.329V350.329Z" fill="#2F2E41"/>
<path d="M264.693 189.322L261.248 195.524C261.248 195.524 266.989 195.524 268.138 204.827L272.731 198.625L264.693 189.322V189.322Z" fill="white"/>
<path d="M324.978 176.297C324.978 176.297 334.164 202.346 335.887 218.472C337.609 234.598 340.48 277.394 340.48 277.394L346.221 332.594L330.145 335.075L323.256 279.254L307.754 224.054L304.309 279.254L301.438 329.493L286.51 330.113L285.362 278.014L279.046 211.65L282.491 180.018L324.978 176.297V176.297Z" fill="#2F2E41"/>
<path d="M313.782 97.2184L319.524 101.559L326.988 182.809L280.482 184.049L286.798 127.609L292.539 111.483L296.683 105.564L313.782 97.2184Z" fill="white"/>
<path d="M314.93 155.519L316.687 99.4149C316.687 99.4149 320.098 99.699 321.246 101.56C322.394 103.42 341.341 107.142 341.341 107.142L337.896 164.823C337.896 164.823 352.25 210.719 347.083 213.2C341.915 215.681 332.729 215.061 332.729 215.061L314.93 155.519V155.519Z" fill="#D0CDE1"/>
<path d="M287.084 148.387L293.175 110.575L279.621 120.477L283.065 147.767L280.195 166.373C280.195 166.373 269.286 217.852 272.731 219.713C276.176 221.573 280.195 219.713 280.195 219.713L287.084 167.614V148.387V148.387Z" fill="#D0CDE1"/>
<path d="M283.64 119.236L279.621 120.477L277.898 145.286L275.027 166.994L261.248 193.663C261.248 193.663 268.138 188.701 271.008 202.967L286.184 174.426L283.64 119.236Z" fill="#D0CDE1"/>
<path d="M314.869 202.783C315.405 199.111 318.595 196.603 321.994 197.181C322.356 197.243 322.713 197.339 323.06 197.468L336.754 178.671L340.385 190.466L326.824 206.508C325.48 209.952 321.806 211.567 318.618 210.115C315.95 208.9 314.401 205.869 314.869 202.783V202.783Z" fill="#FFB7B7"/>
<path d="M338.183 196.144L333.016 202.967L326.126 189.942L328.997 184.36L338.183 196.144Z" fill="white"/>
<path d="M337.035 109.313L341.628 106.832C341.628 106.832 345.073 111.793 345.647 116.135C346.221 120.477 349.092 126.059 349.092 129.16C349.092 132.261 357.13 161.412 357.13 161.412L338.757 201.726C338.757 201.726 334.738 186.841 326.126 185.6L340.48 163.892L332.442 148.387L337.035 109.313V109.313Z" fill="#D0CDE1"/>
<path d="M436.42 350.711H215.494C215.174 350.711 214.915 350.431 214.915 350.085C214.915 349.739 215.174 349.458 215.494 349.458H436.42C436.74 349.458 437 349.739 437 350.085C437 350.431 436.74 350.711 436.42 350.711V350.711Z" fill="#CBCBCB"/>
<path d="M211.648 132.796H0V80.1787H211.648V132.796Z" fill="white"/>
<path d="M30.5456 97.5765C29.4067 97.5765 28.4834 98.5739 28.4834 99.8043C28.4834 101.035 29.4067 102.032 30.5456 102.032H181.111C182.25 102.032 183.173 101.035 183.173 99.8043C183.173 98.5739 182.25 97.5765 181.111 97.5765H30.5456Z" fill="#738994"/>
<path d="M30.5456 110.943C29.4067 110.94 28.4815 111.936 28.4791 113.166C28.4767 114.396 29.398 115.396 30.5369 115.398H125.726C126.865 115.398 127.788 114.401 127.788 113.171C127.788 111.94 126.865 110.943 125.726 110.943H30.5456V110.943Z" fill="#738994"/>
<path d="M211.648 132.796H0V80.1787H211.648V132.796ZM3.47914 129.038H208.169V83.9371H3.47914V129.038Z" fill="#E5E5E5"/>
<path d="M211.648 212.975H0V160.357H211.648V212.975Z" fill="white"/>
<path d="M30.5456 177.755C29.4067 177.755 28.4834 178.753 28.4834 179.983C28.4834 181.213 29.4067 182.211 30.5456 182.211H181.111C182.25 182.211 183.173 181.213 183.173 179.983C183.173 178.753 182.25 177.755 181.111 177.755H30.5456Z" fill="#E6E6E6"/>
<path d="M30.5456 191.121C29.4067 191.119 28.4815 192.114 28.4791 193.344C28.4767 194.575 29.398 195.574 30.5369 195.577H125.726C126.865 195.577 127.788 194.58 127.788 193.349C127.788 192.119 126.865 191.121 125.726 191.121H30.5456V191.121Z" fill="#E6E6E6"/>
<path d="M211.648 212.975H0V160.357H211.648V212.975ZM3.47914 209.216H208.169V164.116H3.47914V209.216Z" fill="#E5E5E5"/>
<path d="M213.388 52.6173H1.73956V0H213.388V52.6173Z" fill="white"/>
<path d="M32.2852 17.3977C31.1463 17.4 30.2247 18.3991 30.2267 19.6295C30.2288 20.8566 31.1492 21.8509 32.2852 21.8531H182.851C183.99 21.8509 184.911 20.8517 184.909 19.6214C184.907 18.3942 183.987 17.3999 182.851 17.3977H32.2852V17.3977Z" fill="#738994"/>
<path d="M32.2852 30.7641C31.1463 30.7615 30.221 31.7567 30.2186 32.9871C30.2162 34.2174 31.1376 35.2169 32.2765 35.2195H127.466C128.604 35.2217 129.529 34.2262 129.531 32.9958C129.534 31.7655 128.612 30.7663 127.473 30.764C127.471 30.764 127.468 30.764 127.466 30.764H32.2852V30.7641Z" fill="#738994"/>
<path d="M213.388 52.6173H1.73956V0H213.388V52.6173ZM5.21871 48.8589H209.908V3.75838H5.21871V48.8589Z" fill="#E5E5E5"/>
<path d="M400.658 351V305.687C400.658 305.687 417.006 337.812 400.658 351Z" fill="#269A09"/>
<path d="M401.668 350.992L370.768 320.348C370.768 320.348 403.73 329.065 401.668 350.992Z" fill="#269A09"/>
<path d="M252.833 206.504C258.897 206.504 263.812 201.194 263.812 194.644C263.812 188.094 258.897 182.784 252.833 182.784C246.769 182.784 241.854 188.094 241.854 194.644C241.854 201.194 246.769 206.504 252.833 206.504Z" fill="#00ED42"/>
<path d="M251.745 199.168C251.498 199.169 251.258 199.083 251.06 198.923L251.048 198.913L248.468 196.78C247.965 196.364 247.87 195.587 248.255 195.044C248.64 194.501 249.36 194.398 249.863 194.814L251.534 196.199L255.483 190.633C255.869 190.09 256.588 189.988 257.09 190.404L257.091 190.404L257.066 190.441L257.091 190.404C257.593 190.821 257.688 191.597 257.303 192.14L252.658 198.684C252.44 198.99 252.103 199.168 251.746 199.167L251.745 199.168V199.168Z" fill="white"/>
<path d="M297.64 98.2464C306.32 98.2464 313.356 90.6455 313.356 81.2692C313.356 71.8929 306.32 64.292 297.64 64.292C288.961 64.292 281.924 71.8929 281.924 81.2692C281.924 90.6455 288.961 98.2464 297.64 98.2464Z" fill="#FFB6B6"/>
<path d="M311.369 94.3134C311.369 94.3134 316.023 84.1297 315.94 80.2419C315.858 76.3541 313.314 66.3495 312.241 65.6898C311.168 65.03 299.595 58.6823 296.458 60.5909C293.322 62.4994 287.802 69.0273 281.849 70.7934C280.165 71.2929 281.635 80.6377 281.635 80.6377L288.601 79.5492C288.601 79.5492 295.865 72.504 296.179 77.3013C296.493 82.0986 303.228 80.1005 303.228 80.1005L303.311 83.9883L306.068 84.1486L306.827 80.011C306.827 80.011 308.066 88.4463 306.465 92.8337C304.864 97.221 311.369 94.3134 311.369 94.3134V94.3134Z" fill="#2F2E41"/>
</svg>
