<svg width="101" height="100" viewBox="0 0 101 100" fill="none" xmlns="http://www.w3.org/2000/svg">
<path d="M41.8875 30.6271V23.9688H26.0958V30.625" stroke="#9747FF" stroke-width="2.08333" stroke-linecap="round" stroke-linejoin="round"/>
<path d="M56.6583 80.4667C71.2709 80.4667 83.1167 68.6209 83.1167 54.0084C83.1167 39.3958 71.2709 27.55 56.6583 27.55C42.0458 27.55 30.2 39.3958 30.2 54.0084C30.2 68.6209 42.0458 80.4667 56.6583 80.4667Z" stroke="#9747FF" stroke-width="2.08333" stroke-linecap="round" stroke-linejoin="round"/>
<path d="M47.7146 78.9084H14.6146C13.3659 78.9084 12.1683 78.4124 11.2853 77.5294C10.4023 76.6464 9.90625 75.4488 9.90625 74.2001V29.1063H47.7146M65.6021 29.1063H91.1542V74.2001C91.1542 75.4488 90.6581 76.6464 89.7751 77.5294C88.8921 78.4124 87.6946 78.9084 86.4458 78.9084H65.6042M89.4896 29.1063V21.8292H72.2312V29.1063M72.2292 29.1063V22.523L67.0479 13.5417H46.2708L41.0854 22.5209V29.1063" stroke="#9747FF" stroke-width="2.08333" stroke-linecap="round" stroke-linejoin="round"/>
<path d="M56.6583 67.7063C64.22 67.7063 70.35 61.5764 70.35 54.0147C70.35 46.453 64.22 40.323 56.6583 40.323C49.0966 40.323 42.9667 46.453 42.9667 54.0147C42.9667 61.5764 49.0966 67.7063 56.6583 67.7063Z" stroke="#9747FF" stroke-width="2.08333" stroke-linecap="round" stroke-linejoin="round"/>
<path d="M56.6583 75.2083C68.3633 75.2083 77.8521 65.7195 77.8521 54.0146C77.8521 42.3096 68.3633 32.8208 56.6583 32.8208C44.9534 32.8208 35.4646 42.3096 35.4646 54.0146C35.4646 65.7195 44.9534 75.2083 56.6583 75.2083Z" stroke="#9747FF" stroke-width="2.08333" stroke-linecap="round" stroke-linejoin="round"/>
<path d="M72.2292 23.7854H41.0875" stroke="#9747FF" stroke-width="2.08333" stroke-linecap="round" stroke-linejoin="round"/>
</svg>
