<svg width="400" height="352" viewBox="0 0 400 352" fill="none" xmlns="http://www.w3.org/2000/svg">
<g clip-path="url(#clip0_701_10)">
<path d="M166.388 305.238L170.757 290.727C165.5 284.826 158.911 280.323 151.561 277.61C158.742 289.743 151.783 305.572 154.683 319.433C155.62 323.749 157.497 327.794 160.175 331.27C162.853 334.745 166.264 337.561 170.154 339.51L176.784 347.888C180.26 341.695 182.378 334.806 182.992 327.698C183.606 320.589 182.702 313.43 180.342 306.712C178.981 302.957 177.162 299.391 174.928 296.099C170.989 300.823 166.388 305.238 166.388 305.238Z" fill="#269A09"/>
<path d="M142.365 307.093L139.93 292.117C132.645 289.226 124.779 288.194 117.014 289.108C128.746 296.702 129.44 314.034 138.096 325.121C140.822 328.558 144.271 331.325 148.188 333.218C152.104 335.11 156.389 336.079 160.723 336.054L170.32 340.537C170.723 333.412 169.606 326.284 167.048 319.642C164.489 313 160.549 307.003 155.499 302.064C152.639 299.322 149.452 296.958 146.013 295.028C144.553 301.048 142.365 307.093 142.365 307.093Z" fill="#269A09"/>
<path d="M285.353 344.164L278.623 344.163L275.422 317.69L285.354 317.69L285.353 344.164Z" fill="#FFB6B6"/>
<path d="M287.069 350.817L265.37 350.816V350.536C265.37 348.252 266.26 346.061 267.844 344.445C269.428 342.83 271.576 341.922 273.816 341.922H273.816L277.78 338.855L285.175 341.923L287.069 341.923L287.069 350.817Z" fill="#2F2E41"/>
<path d="M394.058 319.129L389.47 324.15L368.299 308.488L375.071 301.078L394.058 319.129Z" fill="#FFB6B6"/>
<path d="M400 322.385L385.205 338.574L385.005 338.383C383.366 336.825 382.401 334.667 382.323 332.384C382.244 330.101 383.058 327.88 384.585 326.208L384.585 326.208L385.088 321.16L392.33 317.734L393.621 316.32L400 322.385Z" fill="#2F2E41"/>
<path d="M384.101 304.251L376.988 319.423L333.31 289.928L326.956 281.098L306.122 252.145L297.653 265.851L291.76 280.179C289.839 281.457 288.221 283.153 287.022 285.147C285.823 287.14 285.072 289.38 284.825 291.705L284.556 294.242L288.279 328.384L274.126 332.816L265.997 286.951L268.655 277.012L271.39 263.061L285.164 218.976H322.021L343.161 264.87L344.707 274.222L350.701 281.238L384.101 304.251Z" fill="#2F2E41"/>
<path d="M307.503 146.848L313.708 151.666L321.191 154.012C321.191 154.012 324.284 198.392 327.071 201.235C329.859 204.078 327.345 204.154 327.905 207.847C328.465 211.54 329.826 219.111 329.826 219.111C311.012 229.268 294.792 229.541 281.763 217.654C281.596 216.919 281.681 216.148 282.003 215.468C282.325 214.789 282.865 214.242 283.534 213.919C285.958 212.606 281.298 206.481 283.28 205.457C285.262 204.433 282.474 195.549 282.474 195.549L284.303 177.013L282.858 174.05L286.384 155.92L292.501 153.642L294.944 147.637L307.503 146.848Z" fill="#70C4EA"/>
<path d="M311.39 225.726C311.362 224.925 311.507 224.127 311.815 223.389C312.122 222.651 312.584 221.99 313.169 221.454C313.753 220.917 314.446 220.518 315.198 220.285C315.951 220.051 316.744 219.988 317.522 220.101L326.266 202.766L331.138 211.595L322.088 226.703C321.815 228.024 321.077 229.197 320.013 230C318.948 230.804 317.632 231.181 316.314 231.061C314.995 230.94 313.766 230.331 312.858 229.348C311.951 228.365 311.429 227.076 311.39 225.726H311.39Z" fill="#FFB6B6"/>
<path d="M326.116 221.486L344.871 191.838L344.809 191.702C344.739 191.546 340.491 182.19 336.376 173.622C335.743 172.302 335.112 171.001 334.5 169.755C334.236 169.218 333.976 168.691 333.72 168.176C331.992 164.701 330.481 161.828 329.58 160.464C327.586 157.379 324.618 155.082 321.168 153.955L321.081 153.932L320.998 153.967C319.31 154.694 317.916 155.985 317.044 157.628C316.173 159.271 315.876 161.168 316.204 163.006C317.83 171.872 321.455 180.231 326.792 187.423L329.833 191.511L319.267 214.94L326.116 221.486Z" fill="#70C4EA"/>
<path d="M261.623 107.843C262.14 108.448 262.52 109.16 262.737 109.931C262.954 110.702 263.003 111.512 262.88 112.304C262.757 113.096 262.465 113.851 262.025 114.516C261.585 115.18 261.007 115.739 260.333 116.151L264.242 135.233L255.007 131.504L252.71 113.955C252.106 112.753 251.955 111.368 252.286 110.06C252.617 108.753 253.406 107.615 254.505 106.861C255.604 106.108 256.935 105.792 258.247 105.972C259.559 106.153 260.76 106.819 261.623 107.843H261.623Z" fill="#FFB6B6"/>
<path d="M252.802 120.595L256.536 155.671L256.668 155.738C256.778 155.792 261.509 158.159 267.317 160.978C268.296 161.453 268.156 163.513 269.18 164.006C269.885 164.345 271.748 163.114 272.46 163.454C278.809 166.482 285.227 169.426 287.786 170.224C291.239 171.34 294.963 171.218 298.339 169.877L298.421 169.839L298.463 169.759C299.326 168.111 299.612 166.212 299.275 164.376C298.937 162.539 297.996 160.875 296.607 159.658C289.87 153.815 281.893 149.65 273.307 147.49L268.421 146.267L262.164 121.28L252.802 120.595Z" fill="#70C4EA"/>
<path d="M300.888 144.86C307.666 144.86 313.161 139.256 313.161 132.343C313.161 125.43 307.666 119.826 300.888 119.826C294.11 119.826 288.616 125.43 288.616 132.343C288.616 139.256 294.11 144.86 300.888 144.86Z" fill="#FFB6B6"/>
<path d="M288.703 123.955C289.713 120.961 294.737 118.883 302.882 118.595C311.027 118.306 313.093 128.096 313.093 128.096C318.53 132.594 307.287 144.639 306.743 144.205L306.987 141.942C307.392 138.194 309.113 135.269 306.925 131.363L304.823 131.388C302.109 131.92 299.395 132.452 296.681 132.985L299.894 130.099L299.803 129.956C298.436 130.682 296.949 131.143 295.417 131.314C293.69 131.418 291.802 130.717 290.975 129.167C290.754 128.741 290.619 128.274 290.578 127.794C288.249 128.743 287.184 131.672 287.184 131.672C287.184 131.672 287.694 126.95 288.703 123.955Z" fill="#2F2E41"/>
<path d="M49.4468 124.706C49.2802 124.491 49.1009 124.286 48.9098 124.093C48.9565 124.028 49.0032 123.956 49.0499 123.891L49.4468 124.706Z" fill="#2F2E41"/>
<path d="M51.8336 175.05C49.8261 178.687 45.8167 180.717 41.8425 181.711C37.3785 182.904 32.6777 182.811 28.2622 181.443C27.702 181.259 27.1417 181.044 26.599 180.806C26.8599 180.099 27.0667 179.373 27.2176 178.634C27.4207 177.633 27.5224 176.614 27.5211 175.592C27.0789 176.472 26.506 177.277 25.8228 177.979C25.2958 178.544 24.6972 179.034 24.0428 179.437C22.0133 178.181 20.256 176.516 18.878 174.544C18.9656 174.324 19.0531 174.104 19.1348 173.884C19.5586 172.733 19.8942 171.551 20.1386 170.348C20.4702 168.721 20.6364 167.064 20.6347 165.402C19.9151 166.834 18.9819 168.143 17.8684 169.283C17.5346 169.647 17.1799 169.991 16.8063 170.312C16.2277 168.52 16.004 166.629 16.1483 164.747C16.2925 162.866 16.8018 161.033 17.6466 159.354C19.9577 154.997 24.4397 152.408 28.4315 149.593C32.4291 146.777 36.4267 142.968 36.7652 138.021C36.9928 134.682 35.4755 131.337 36.0824 128.051C36.3377 126.666 36.9608 125.378 37.884 124.329C38.8072 123.28 39.995 122.509 41.318 122.101C42.641 121.693 44.0485 121.662 45.3872 122.014C46.7258 122.365 47.9443 123.084 48.9098 124.093C46.6455 127.367 44.3928 130.754 43.4765 134.646C42.5428 138.611 43.3073 143.259 46.3712 145.884C47.4217 146.789 48.7114 147.432 49.5226 148.563C50.6022 150.063 50.6081 152.063 50.7832 153.908C51.1333 157.497 52.283 160.949 52.9016 164.503C53.5261 168.051 53.5611 171.902 51.8336 175.05Z" fill="#2F2E41"/>
<path d="M10.6796 322.657L16.006 326.854L34.4139 307.898L26.5526 301.703L10.6796 322.657Z" fill="#A0616A"/>
<path d="M10.9062 318.556L19.714 324.679L16.9267 328.358L20.6596 340.305C20.8441 340.895 20.8388 341.53 20.6445 342.117C20.4502 342.703 20.0771 343.211 19.5797 343.567C19.0823 343.922 18.4865 344.105 17.8795 344.091C17.2725 344.076 16.6859 343.864 16.2055 343.485L6.18171 335.586L7.21107 330.585L3.77936 333.692L1.52588e-05 330.714L10.9062 318.556Z" fill="#2F2E41"/>
<path d="M37.702 135.281C37.7012 137.404 38.2113 139.494 39.1874 141.368C40.1636 143.243 41.576 144.844 43.3006 146.032C45.0253 147.22 47.0094 147.958 49.0789 148.181C51.1484 148.404 53.24 148.106 55.17 147.312C57.1 146.518 58.8095 145.253 60.1483 143.628C61.4871 142.003 62.4144 140.068 62.8487 137.992C63.283 135.916 63.2111 133.764 62.6392 131.723C62.0674 129.682 61.0131 127.816 59.5689 126.287L59.5079 126.225C59.4062 126.116 59.3045 126.007 59.1977 125.904C59.197 125.904 59.1963 125.904 59.1957 125.903C59.1951 125.903 59.1945 125.903 59.194 125.902C59.1936 125.902 59.1932 125.901 59.1929 125.9C59.1927 125.9 59.1926 125.899 59.1926 125.898C59.0604 125.774 58.9281 125.65 58.7908 125.53C56.5533 123.528 53.4084 121.355 50.1996 121.355C43.1767 121.355 37.702 128.118 37.702 135.281Z" fill="#2F2E41"/>
<path d="M110.166 128.622C110.227 129.314 110.138 130.011 109.907 130.664C109.675 131.317 109.306 131.91 108.825 132.401C108.344 132.893 107.763 133.271 107.124 133.509C106.484 133.747 105.801 133.839 105.123 133.779L73.6417 162.77L68.2241 154.043L100.873 128.29C101.048 127.134 101.632 126.085 102.515 125.339C103.398 124.594 104.519 124.205 105.664 124.246C106.81 124.287 107.901 124.755 108.731 125.562C109.56 126.368 110.071 127.457 110.166 128.622V128.622Z" fill="#A0616A"/>
<path d="M60.187 171.52C60.187 171.52 61.3583 173.727 65.3595 170.32C68.5627 167.592 83.909 155.751 87.2151 150.898C87.9701 151.203 88.803 151.244 89.5829 151.013C90.3627 150.782 91.045 150.293 91.5223 149.623L82.4638 141.531C79.7534 141.849 79.8115 143.707 80.0938 144.761L73.2608 147.918L55.6158 159.419L59.3125 169.941L60.187 171.52Z" fill="#FF8906"/>
<path d="M43.0931 191.849L42.4333 195.054L41.873 206.875L66.5402 208.258L65.7742 190.076L63.3832 186.069L43.0931 191.849Z" fill="#A0616A"/>
<path d="M53.5475 149.155C59.4352 149.155 64.2082 144.286 64.2082 138.281C64.2082 132.276 59.4352 127.408 53.5475 127.408C47.6597 127.408 42.8868 132.276 42.8868 138.281C42.8868 144.286 47.6597 149.155 53.5475 149.155Z" fill="#A0616A"/>
<path d="M34.6207 178.387L34.5551 169.348C34.5536 166.096 35.6326 162.94 37.6162 160.393C39.5997 157.847 42.3706 156.062 45.477 155.328L45.5172 155.318L47.6252 152.422L56.1897 153.295L57.7595 156.568L63.9654 160.336L66.3548 168.171C67.3912 168.875 68.2745 169.79 68.9497 170.857C69.625 171.924 70.0778 173.122 70.2801 174.375C71.0913 179.66 67.4633 184.948 67.0317 185.555L65.9198 191.942L41.7307 196.295L41.5343 196.32L34.6207 178.387Z" fill="#FF8906"/>
<path d="M66.5928 136.343C65.3493 137.146 64.0591 137.872 62.7293 138.515C61.3797 139.177 59.968 139.697 58.5158 140.069C58.1003 139.139 57.5918 138.256 56.9985 137.432C57.1511 138.408 57.1551 139.402 57.0101 140.379C54.603 140.775 52.1377 140.568 49.8261 139.777L47.8185 136.343L47.6668 140.176C46.0035 140.486 44.3461 140.777 42.6829 141.081C42.5837 141.093 42.4845 141.117 42.3911 141.135C41.3581 136.385 42.8229 131.153 46.0794 127.986C47.6962 126.43 49.7131 125.375 51.8952 124.943C54.0773 124.511 56.3348 124.72 58.4049 125.546C58.6676 125.653 58.936 125.772 59.1928 125.897C59.1927 125.898 59.1929 125.898 59.1932 125.899C59.1935 125.9 59.1939 125.9 59.1944 125.901C59.195 125.902 59.1956 125.902 59.1964 125.902C59.1971 125.903 59.1978 125.903 59.1986 125.903C59.3503 125.98 59.4787 126.165 59.648 126.147C66.9312 125.319 67.1647 131.081 66.5928 136.343Z" fill="#2F2E41"/>
<path d="M48.8578 308.637L54.1924 312.823L72.5631 293.829L64.6898 287.651L48.8578 308.637Z" fill="#A0616A"/>
<path d="M49.56 304.915L58.3799 311.019L55.5998 314.704L59.3565 326.644C59.5421 327.233 59.538 327.868 59.3449 328.455C59.1518 329.042 58.7797 329.551 58.283 329.907C57.7862 330.263 57.1909 330.448 56.5838 330.435C55.9768 330.422 55.3898 330.211 54.9086 329.833L44.8692 321.954L45.8887 316.951L42.4631 320.066L38.6779 317.095L49.56 304.915Z" fill="#2F2E41"/>
<path d="M31.5473 285.455L31.547 285.384L34.0753 280.941L31.4936 275.156L31.4162 260.295L31.8347 258.064C32.3975 255.064 32.2338 251.968 31.3575 249.047L31.3104 240.001C31.2197 237.735 34.6616 235.742 33.859 233.853C26.2722 215.996 41.6062 202.374 41.7098 202.264L42.0232 201.932L43.7233 203.246L45.3415 203.248L67.1788 207.306L67.3365 207.606C68.1954 209.249 69.853 214.913 69.9513 217.475C71.0396 218.761 83.4366 233.392 84.5386 234.408C91.9856 241.281 96.2493 252.655 98.128 258.824C98.5946 260.349 98.6886 261.966 98.4019 263.537C98.1153 265.107 97.4566 266.581 96.4832 267.832L68.291 299.328L60.7043 292.185L75.9588 263.834L74.8588 260.957C72.8851 260.586 71.0989 259.527 69.805 257.963L66.7161 254.223C65.8608 253.19 65.3174 251.927 65.1515 250.586L63.2782 250.356L56.5682 243.171L51.9129 286.169L50.6473 289.566L28.6066 315.994L19.2691 310.042L31.5473 285.455Z" fill="#2F2E41"/>
<path d="M28.1813 100.825C27.7578 101.369 27.4564 102.001 27.2982 102.676C27.1401 103.351 27.129 104.054 27.2659 104.734C27.4027 105.414 27.6841 106.056 28.0903 106.613C28.4964 107.17 29.0175 107.63 29.6166 107.96L22.6081 129.122L28.3309 151.548L37.559 147.293L31.8646 130.377L36.1249 105.756C36.6013 104.692 36.6786 103.488 36.3423 102.37C36.006 101.252 35.2794 100.299 34.3003 99.6917C33.3211 99.084 32.1574 98.8637 31.0296 99.0726C29.9018 99.2815 28.8884 99.9051 28.1813 100.825V100.825Z" fill="#A0616A"/>
<path d="M36.6282 170.026C36.6282 170.026 34.4608 171.213 32.9534 166.124C31.7467 162.05 23.5342 139.929 23.3862 134.022C22.5911 133.854 21.8735 133.421 21.3464 132.791C20.8193 132.161 20.5126 131.37 20.4748 130.543L32.4025 128.859C34.4955 130.644 33.4465 132.163 32.6427 132.886L36.7052 139.904L45.1964 158.851L38.2099 169.196L36.6282 170.026Z" fill="#FF8906"/>
<path d="M42.6805 141.08C43.9054 137.312 46.1018 133.951 49.0393 131.347C51.9767 128.743 55.547 126.994 59.3757 126.282C59.3909 126.277 59.4418 126.256 59.5079 126.225C59.5486 126.199 59.5994 126.173 59.6503 126.148C59.4977 126.059 59.3503 125.982 59.1977 125.904C59.197 125.904 59.1963 125.904 59.1957 125.903C59.1951 125.903 59.1945 125.903 59.1941 125.902C59.1936 125.902 59.1932 125.901 59.193 125.9C59.1927 125.9 59.1926 125.899 59.1926 125.898C59.0604 125.774 58.9282 125.65 58.7909 125.53L58.4044 125.546C58.4044 125.546 44.8214 123.352 42.6805 141.08Z" fill="#FD6584"/>
<path d="M217.95 262.245C219.432 259.972 218.555 256.719 215.99 254.978C213.425 253.238 210.144 253.669 208.662 255.942C207.179 258.215 208.057 261.468 210.621 263.208C213.186 264.949 216.467 264.517 217.95 262.245Z" fill="#F2F2F2"/>
<path d="M187.857 177.422C189.339 175.15 188.462 171.896 185.897 170.156C183.332 168.416 180.051 168.847 178.569 171.12C177.087 173.392 177.964 176.645 180.529 178.386C183.094 180.126 186.375 179.695 187.857 177.422Z" fill="#F2F2F2"/>
<path d="M313.699 308.004C315.181 305.731 314.304 302.478 311.739 300.738C309.174 298.998 305.893 299.429 304.411 301.702C302.928 303.974 303.806 307.227 306.37 308.968C308.935 310.708 312.216 310.277 313.699 308.004Z" fill="#F2F2F2"/>
<path d="M59.2795 35.1213C60.762 32.8487 59.8845 29.5955 57.3197 27.8551C54.7549 26.1147 51.474 26.5462 49.9915 28.8188C48.5091 31.0914 49.3865 34.3446 51.9513 36.085C54.5162 37.8254 57.7971 37.3939 59.2795 35.1213Z" fill="#F2F2F2"/>
<path d="M178.008 8.33527C179.491 6.06266 178.613 2.80949 176.049 1.0691C173.484 -0.67129 170.203 -0.239849 168.72 2.03276C167.238 4.30537 168.115 7.55857 170.68 9.29896C173.245 11.0393 176.526 10.6079 178.008 8.33527Z" fill="#F2F2F2"/>
<path d="M121.817 233.067C123.3 230.795 122.422 227.541 119.857 225.801C117.293 224.061 114.012 224.492 112.529 226.765C111.047 229.037 111.924 232.29 114.489 234.031C117.054 235.771 120.335 235.34 121.817 233.067Z" fill="#E6E6E6"/>
<path d="M366.729 351.351H10.9281C10.7556 351.351 10.5904 351.281 10.4687 351.156C10.3469 351.031 10.2785 350.863 10.2785 350.687C10.2785 350.511 10.3469 350.342 10.4687 350.218C10.5904 350.093 10.7556 350.023 10.9281 350.022H366.729C366.901 350.022 367.067 350.092 367.189 350.217C367.312 350.342 367.38 350.511 367.38 350.687C367.38 350.863 367.312 351.032 367.189 351.157C367.067 351.281 366.901 351.351 366.729 351.351V351.351Z" fill="#CCCCCC"/>
<path d="M77.1511 130.672C74.1582 130.663 71.2735 129.53 69.0483 127.488C66.8232 125.447 65.4138 122.641 65.0895 119.606L58.1434 53.809C57.8022 50.5422 58.7454 47.2707 60.7661 44.7122C62.7869 42.1538 65.7202 40.5174 68.9224 40.1621L275.168 17.5123C278.371 17.1641 281.579 18.126 284.088 20.187C286.596 22.248 288.201 25.2397 288.549 28.5059L295.495 94.3026C295.837 97.5695 294.893 100.841 292.873 103.4C290.852 105.958 287.918 107.595 284.716 107.95L284.687 107.673L284.716 107.95L78.4701 130.6C78.032 130.648 77.5917 130.672 77.1511 130.672V130.672Z" fill="#E6E6E6"/>
<path d="M272.897 20.5668C272.509 20.5669 272.122 20.5882 271.737 20.6306L72.9269 42.4637C71.5367 42.6164 70.1897 43.0468 68.9626 43.7304C67.7356 44.414 66.6526 45.3375 65.7755 46.448C64.8983 47.5585 64.2442 48.8344 63.8506 50.2027C63.4569 51.571 63.3313 53.0051 63.481 54.4229L66.993 87.6905C67.5607 93.0686 69.1615 98.28 71.7039 103.027C74.2463 107.774 77.6805 111.964 81.8106 115.358C85.9406 118.751 90.6855 121.282 95.7745 122.805C100.863 124.328 106.197 124.814 111.47 124.235L251.266 108.882C256.523 108.305 261.617 106.677 266.257 104.092C270.897 101.507 274.993 98.0147 278.31 93.8152C281.627 89.6156 284.101 84.7908 285.589 79.6163C287.078 74.4417 287.553 69.0188 286.987 63.657L283.462 30.2647C283.181 27.6049 281.947 25.1444 279.998 23.3548C278.048 21.5652 275.52 20.5725 272.897 20.5668V20.5668Z" fill="white"/>
<path d="M231.03 55.1887L119.913 67.3916C119.595 67.427 119.274 67.3981 118.967 67.3066C118.66 67.2151 118.374 67.0629 118.125 66.8585C117.876 66.6542 117.669 66.4018 117.516 66.1158C117.362 65.8298 117.266 65.5157 117.232 65.1916C117.197 64.8675 117.226 64.5397 117.316 64.227C117.406 63.9142 117.556 63.6227 117.757 63.369C117.957 63.1153 118.205 62.9044 118.486 62.7484C118.766 62.5924 119.074 62.4944 119.392 62.4599L230.51 50.257C230.827 50.2217 231.149 50.2506 231.456 50.3421C231.762 50.4336 232.048 50.5858 232.297 50.7901C232.546 50.9945 232.754 51.2468 232.907 51.5329C233.06 51.8189 233.157 52.1329 233.191 52.457C233.225 52.7811 233.196 53.1089 233.106 53.4217C233.016 53.7344 232.866 54.026 232.666 54.2797C232.465 54.5334 232.217 54.7443 231.937 54.9003C231.656 55.0563 231.348 55.1543 231.03 55.1887V55.1887Z" fill="#738994"/>
<path d="M232.628 70.3245L121.511 82.5274C120.87 82.5978 120.227 82.4056 119.725 81.9929C119.223 81.5803 118.902 80.981 118.833 80.3271C118.764 79.6731 118.952 79.0179 119.357 78.5057C119.761 77.9934 120.349 77.6661 120.99 77.5957L232.108 65.3928C232.749 65.3224 233.391 65.5146 233.893 65.9273C234.396 66.3399 234.716 66.9392 234.786 67.5932C234.855 68.2471 234.666 68.9023 234.261 69.4145C233.857 69.9268 233.269 70.2541 232.628 70.3245V70.3245Z" fill="#738994"/>
<path d="M136.058 96.2406L123.109 97.6627C122.467 97.7331 121.825 97.5409 121.323 97.1282C120.821 96.7156 120.5 96.1163 120.431 95.4623C120.362 94.8084 120.55 94.1532 120.955 93.641C121.359 93.1287 121.947 92.8014 122.588 92.731L135.537 91.3089C135.855 91.2736 136.176 91.3025 136.483 91.394C136.79 91.4854 137.076 91.6377 137.325 91.842C137.574 92.0463 137.781 92.2987 137.934 92.5848C138.088 92.8708 138.184 93.1848 138.218 93.5089C138.253 93.833 138.224 94.1608 138.134 94.4736C138.044 94.7863 137.894 95.0779 137.693 95.3316C137.493 95.5853 137.245 95.7962 136.964 95.9521C136.684 96.1081 136.376 96.2062 136.058 96.2406Z" fill="#738994"/>
<path d="M72.7791 56.5853C75.1965 56.5853 77.1562 54.5865 77.1562 52.121C77.1562 49.6554 75.1965 47.6566 72.7791 47.6566C70.3617 47.6566 68.402 49.6554 68.402 52.121C68.402 54.5865 70.3617 56.5853 72.7791 56.5853Z" fill="#3F3D56"/>
<path d="M268.655 34.2636C271.072 34.2636 273.032 32.2649 273.032 29.7993C273.032 27.3337 271.072 25.335 268.655 25.335C266.237 25.335 264.277 27.3337 264.277 29.7993C264.277 32.2649 266.237 34.2636 268.655 34.2636Z" fill="#3F3D56"/>
<path d="M209.478 125.915C209.076 125.554 208.757 125.107 208.545 124.606C208.334 124.104 208.234 123.561 208.254 123.015C208.474 116.531 207.427 110.067 205.174 103.999C204.983 103.489 204.906 102.942 204.948 102.398C204.99 101.853 205.151 101.325 205.418 100.852C205.674 100.398 206.025 100.006 206.446 99.7041C206.866 99.4023 207.346 99.1981 207.852 99.1058C212.94 95.9745 218.155 95.0954 223.357 96.4935C224.196 96.3676 225.051 96.5507 225.77 97.01C226.488 97.4694 227.022 98.1748 227.276 98.9997C229.382 105.973 230.554 113.205 230.759 120.498C230.778 121.373 230.488 122.226 229.941 122.9C229.393 123.574 228.626 124.024 227.779 124.168L212.386 126.761C211.87 126.849 211.342 126.819 210.839 126.673C210.335 126.526 209.871 126.267 209.478 125.915V125.915Z" fill="#738994"/>
<path d="M210.845 107.022L223.801 104.839C223.907 104.821 224.009 104.782 224.101 104.724C224.193 104.666 224.273 104.59 224.335 104.501C224.398 104.411 224.443 104.31 224.468 104.203C224.493 104.096 224.496 103.985 224.479 103.876C224.461 103.768 224.423 103.664 224.365 103.57C224.308 103.477 224.234 103.396 224.146 103.332C224.058 103.268 223.959 103.222 223.854 103.197C223.749 103.172 223.64 103.169 223.533 103.187L210.578 105.37C210.363 105.407 210.172 105.529 210.045 105.709C209.919 105.889 209.868 106.113 209.903 106.332C209.939 106.551 210.058 106.746 210.234 106.876C210.411 107.005 210.631 107.057 210.845 107.022Z" fill="white"/>
<path d="M211.915 113.629L224.871 111.446C225.086 111.409 225.278 111.288 225.404 111.107C225.531 110.927 225.582 110.702 225.547 110.483C225.511 110.264 225.392 110.069 225.215 109.939C225.038 109.81 224.818 109.758 224.603 109.794L211.648 111.977C211.541 111.995 211.439 112.034 211.347 112.092C211.256 112.15 211.176 112.225 211.113 112.315C211.05 112.404 211.005 112.506 210.98 112.613C210.956 112.72 210.952 112.831 210.97 112.94C210.987 113.048 211.026 113.152 211.083 113.246C211.14 113.339 211.215 113.42 211.302 113.484C211.39 113.548 211.489 113.594 211.595 113.619C211.7 113.644 211.809 113.647 211.915 113.629V113.629Z" fill="white"/>
<path d="M212.985 120.236L225.941 118.053C226.156 118.017 226.348 117.895 226.474 117.714C226.601 117.534 226.653 117.309 226.617 117.09C226.582 116.871 226.462 116.676 226.285 116.546C226.108 116.417 225.888 116.365 225.674 116.401L212.718 118.584C212.612 118.602 212.51 118.641 212.418 118.699C212.327 118.757 212.247 118.833 212.184 118.922C212.122 119.012 212.077 119.113 212.052 119.22C212.028 119.327 212.024 119.438 212.042 119.546C212.059 119.655 212.098 119.759 212.155 119.852C212.212 119.945 212.286 120.026 212.374 120.09C212.461 120.154 212.56 120.2 212.665 120.225C212.77 120.25 212.879 120.254 212.985 120.236Z" fill="white"/>
</g>
<defs>
<clipPath id="clip0_701_10">
<rect width="400" height="351.351" fill="white"/>
</clipPath>
</defs>
</svg>
